<?xml version="1.0" standalone="no"?>
<!DOCTYPE svg PUBLIC "-//W3C//DTD SVG 20010904//EN"
 "http://www.w3.org/TR/2001/REC-SVG-20010904/DTD/svg10.dtd">
<svg version="1.0" xmlns="http://www.w3.org/2000/svg"
 width="600.000000pt" height="600.000000pt" viewBox="0 0 600.000000 600.000000"
 preserveAspectRatio="xMidYMid meet">
<metadata>
Created by potrace 1.11, written by Peter Selinger 2001-2013
</metadata>
<g transform="translate(0.000000,600.000000) scale(0.100000,-0.100000)"
fill="#000000" stroke="none">
<path d="M1011 5790 c-42 -10 -72 -24 -195 -88 -39 -20 -112 -95 -119 -122 -5
-20 -3 -22 24 -16 24 5 80 36 99 56 14 15 88 67 110 78 61 31 117 70 124 88 6
15 6 15 -43 4z"/>
<path d="M1530 5795 c0 -10 130 -137 182 -178 46 -37 118 -74 118 -61 0 37
-140 176 -211 211 -52 25 -89 37 -89 28z"/>
<path d="M1020 5533 c-14 -2 -59 -15 -100 -29 -178 -58 -348 -197 -428 -351
-52 -101 -73 -180 -77 -297 -5 -121 -26 -180 -108 -293 -45 -64 -85 -93 -97
-73 -15 25 3 92 37 136 13 18 26 41 28 53 6 33 -46 27 -132 -15 -141 -70 -181
-134 -83 -134 l48 0 16 -47 c17 -55 33 -163 41 -278 6 -88 13 -156 20 -195 2
-14 6 -41 9 -60 11 -77 57 -184 122 -285 18 -30 34 -58 34 -64 0 -5 78 -66
173 -135 94 -69 199 -145 232 -170 33 -24 78 -51 100 -59 22 -8 54 -20 72 -27
l32 -11 -4 -112 c-4 -110 -7 -137 -25 -207 -5 -19 -11 -48 -14 -65 -5 -24 -90
-249 -126 -330 -51 -117 -172 -456 -184 -520 -3 -11 -11 -49 -20 -85 -8 -36
-18 -87 -21 -115 -4 -27 -9 -63 -12 -80 -12 -68 -3 -360 13 -440 33 -162 90
-289 194 -435 110 -152 237 -273 397 -377 46 -29 81 -57 79 -62 -6 -10 -42
-17 -126 -27 -75 -9 -100 -20 -100 -43 0 -39 72 -57 270 -67 63 -3 129 -9 145
-13 90 -23 729 -21 964 4 56 6 113 24 106 34 -2 5 -53 18 -112 30 -169 35
-204 59 -122 81 110 30 251 113 474 280 194 145 252 183 340 227 139 70 196
85 289 78 103 -8 126 -12 184 -31 67 -23 135 -59 222 -117 78 -51 102 -70 309
-247 68 -58 149 -118 180 -135 78 -42 80 -66 9 -93 -30 -11 -69 -23 -88 -26
-59 -10 -136 -34 -115 -36 11 -1 29 -3 40 -5 11 -2 47 -7 80 -10 33 -4 71 -8
85 -10 144 -22 310 -30 585 -30 280 1 374 6 428 26 73 26 33 51 -118 73 -113
16 -176 29 -180 36 -3 4 25 33 63 63 37 30 78 65 92 77 14 12 32 27 40 34 21
15 147 177 197 251 57 84 122 205 165 306 37 85 92 262 103 329 3 19 7 46 10
60 26 142 28 400 4 507 -34 152 -64 243 -87 256 -5 4 -9 -46 -9 -121 1 -176
-12 -296 -44 -425 -60 -238 -146 -388 -310 -541 -64 -59 -232 -116 -324 -110
-200 13 -362 100 -538 289 -122 130 -362 373 -397 400 -199 157 -346 214 -564
219 -112 3 -216 -13 -336 -53 -123 -42 -230 -97 -470 -241 -107 -65 -211 -126
-230 -137 -135 -75 -172 -94 -230 -118 -36 -14 -89 -37 -117 -50 -86 -40 -150
-38 -240 7 -108 54 -215 213 -214 319 0 30 3 68 5 84 2 17 7 53 11 80 4 28 11
70 17 95 5 25 12 56 14 70 3 14 23 102 45 195 22 94 49 206 59 250 17 74 22
96 35 165 34 171 47 386 32 538 -5 45 -4 72 2 72 5 0 8 11 5 24 -4 22 -1 24
41 24 25 1 54 6 65 12 26 14 54 70 70 140 18 79 54 142 146 255 43 54 104 169
104 197 0 13 7 45 15 71 15 50 22 93 30 187 21 246 36 309 87 386 31 45 36 49
75 49 92 1 71 41 -52 100 -127 62 -178 55 -131 -16 12 -19 21 -47 20 -64 -1
-16 -2 -39 -3 -50 -1 -11 -5 -26 -10 -34 -16 -25 -39 5 -102 136 l-59 123 34
53 c47 73 67 138 73 232 11 179 -72 337 -212 404 -28 13 -59 28 -70 34 -54 28
-157 45 -257 41 -57 -2 -114 -6 -128 -9 -14 -4 -90 -8 -170 -10 -108 -2 -156
1 -190 12 -48 16 -90 21 -130 16z m783 -107 c91 -18 152 -45 200 -92 47 -46
86 -127 92 -190 5 -47 4 -48 -8 -19 -24 59 -46 91 -99 141 -67 64 -103 89
-198 136 -41 20 -72 37 -68 37 3 1 40 -5 81 -13z m-1583 -1326 c0 -5 -5 -10
-11 -10 -5 0 -7 5 -4 10 3 6 8 10 11 10 2 0 4 -4 4 -10z m-3 -62 c-3 -8 -6 -5
-6 6 -1 11 2 17 5 13 3 -3 4 -12 1 -19z m2752 -2252 c-2 -1 -35 -20 -72 -41
-58 -32 -67 -34 -55 -16 7 12 36 30 63 41 46 18 74 25 64 16z m-329 -180 c0
-2 -17 -14 -37 -25 l-38 -21 30 25 c28 23 45 31 45 21z m-150 -90 c0 -2 -7 -7
-16 -10 -8 -3 -12 -2 -9 4 6 10 25 14 25 6z m-40 -21 c0 -2 -10 -9 -22 -15
-22 -11 -22 -10 -4 4 21 17 26 19 26 11z m2951 -222 c-5 -10 -31 -38 -57 -63
l-47 -45 54 63 c56 65 66 74 50 45z m-471 -309 c0 -2 -11 -4 -25 -4 -14 0 -25
4 -25 9 0 4 11 6 25 3 14 -2 25 -6 25 -8z"/>
<path d="M5114 2435 c-13 -53 7 -104 104 -264 58 -94 92 -177 92 -224 0 -24 3
-28 10 -17 29 45 -3 205 -70 346 -47 98 -77 145 -107 168 -22 16 -23 16 -29
-9z"/>
<path d="M5957 2426 c-14 -13 -38 -57 -55 -98 -46 -111 -62 -212 -53 -336 2
-24 20 -2 30 36 5 20 12 75 16 122 11 149 29 207 81 269 30 36 16 42 -19 7z"/>
</g>
</svg>
